<svg xmlns="http://www.w3.org/2000/svg" width="44" height="44" viewBox="0 0 32 32"><defs></defs><g><path d="M7.8 20 V17.4 a1.5 1.5 0 0 1 1.5 -1.5 a1.5 1.5 0 0 1 3 0 a1.5 1.5 0 0 1 3 0 a1.5 1.5 0 0 1 3 0 a1.4 1.4 0 0 1 2.7 0 V20 c0 3.6 -2.3 6.2 -6 6.2 h-2 c-3.6 0 -5.9 -2 -5.9 -5.6 Z" fill="rgba(255,255,255,0.18)" stroke="#000000" stroke-width="2.8" stroke-linejoin="round" stroke-linecap="round" paint-order="stroke"></path><path d="M11.2 17.8 v2.2 M14.1 17.6 v2.4 M17 17.8 v2.2" fill="none" stroke="#000000" stroke-width="1.4400000000000002" stroke-linecap="round" stroke-linejoin="round"></path><path d="M6.6 20.6 q-1.3 .3 -1.3 1.8 q0 1.4 1.4 1.6" fill="rgba(255,255,255,0.18)" stroke="#000000" stroke-width="2.8" stroke-linejoin="round" stroke-linecap="round" paint-order="stroke"></path></g></svg>