<svg xmlns="http://www.w3.org/2000/svg" width="46" height="54" viewBox="0 0 50 60"><defs><filter id="sh" x="-30%" y="-30%" width="160%" height="160%"><feDropShadow dx="0.6" dy="1" stdDeviation="0.7" flood-color="#000" flood-opacity="0.35"></feDropShadow></filter></defs><g filter="url(#sh)"><path d="M12.4 14.2 V9.4 a1.7 1.7 0 0 1 3.4 0 V12.8 h0.5 a1.5 1.5 0 0 1 3 0 v0.4 h0.2 a1.45 1.45 0 0 1 2.9 0 v0.6 h0.1 a1.4 1.4 0 0 1 2.8 0 v3.9 c0 3.6 -2.3 6.6 -6.1 6.6 h-2.1 c-1.7 0 -2.8 -0.7 -3.8 -2.1 l-3 -4.1 a1.5 1.5 0 0 1 2.4 -1.8 l1.3 1.6 Z" fill="#ffffff" stroke="#1a1a1a" stroke-width="1.9800000000000002" stroke-linejoin="round" stroke-linecap="round" paint-order="stroke"></path></g><g transform="translate(21 28) scale(0.40)"><path d="M8 54 q0 -30 22 -30 q22 0 22 30 q-4 6 -22 6 q-18 0 -22 -6 z" fill="#7ce06a" stroke="#2f8a2f" stroke-width="1.3"></path><ellipse cx="22" cy="32" rx="4" ry="3" fill="#fff" opacity="0.55"></ellipse><ellipse cx="23" cy="42" rx="4.2" ry="5.4" fill="#fff" stroke="#3a2e3a" stroke-width="1"></ellipse><circle cx="23" cy="42.6" r="3" fill="#1f6e1f"></circle><circle cx="23" cy="43.1" r="1.5" fill="#241a24"></circle><circle cx="21.9" cy="40.8" r="1.2" fill="#fff"></circle><ellipse cx="37" cy="42" rx="4.2" ry="5.4" fill="#fff" stroke="#3a2e3a" stroke-width="1"></ellipse><circle cx="37" cy="42.6" r="3" fill="#1f6e1f"></circle><circle cx="37" cy="43.1" r="1.5" fill="#241a24"></circle><circle cx="35.9" cy="40.8" r="1.2" fill="#fff"></circle><path d="M27 50 Q30 53 33 50" fill="none" stroke="#1f6e1f" stroke-width="1.3" stroke-linecap="round"></path><ellipse cx="17" cy="47" rx="2.6" ry="1.7" fill="#ff9bb0" opacity="0.6"></ellipse><ellipse cx="43" cy="47" rx="2.6" ry="1.7" fill="#ff9bb0" opacity="0.6"></ellipse></g></svg>